
<svg width="32" height="32" viewBox="0 0 32 32" xmlns="http://www.w3.org/2000/svg">
  <defs>
    <linearGradient id="bg" x1="0%" y1="0%" x2="100%" y2="100%">
      <stop offset="0%" style="stop-color:#667eea;stop-opacity:1" />
      <stop offset="100%" style="stop-color:#764ba2;stop-opacity:1" />
    </linearGradient>
    <linearGradient id="plane" x1="0%" y1="0%" x2="100%" y2="100%">
      <stop offset="0%" style="stop-color:#ffffff;stop-opacity:1" />
      <stop offset="100%" style="stop-color:#f8f9fa;stop-opacity:1" />
    </linearGradient>
  </defs>
  
  <!-- Background circle -->
  <circle cx="16" cy="16" r="15.36" fill="url(#bg)" stroke="#ffffff" stroke-width="0.64"/>
  
  <!-- Plane icon -->
  <g transform="translate(16, 11.2)">
    <!-- Plane body -->
    <ellipse cx="0" cy="0" rx="7.68" ry="2.5600000000000005" fill="url(#plane)" transform="rotate(-15)"/>
    
    <!-- Plane wings -->
    <ellipse cx="-3.84" cy="-1.2800000000000002" rx="5.120000000000001" ry="1.2800000000000002" fill="url(#plane)" transform="rotate(-15)"/>
    <ellipse cx="3.84" cy="-1.2800000000000002" rx="5.120000000000001" ry="1.2800000000000002" fill="url(#plane)" transform="rotate(-15)"/>
    
    <!-- Plane tail -->
    <ellipse cx="-6.4" cy="-3.84" rx="1.92" ry="3.84" fill="url(#plane)" transform="rotate(-15)"/>
    
    <!-- Plane nose -->
    <ellipse cx="6.4" cy="0" rx="1.2800000000000002" ry="0.768" fill="url(#plane)" transform="rotate(-15)"/>
    
    <!-- Windows -->
    <circle cx="-2.5600000000000005" cy="-0.256" r="0.6400000000000001" fill="#667eea" opacity="0.8"/>
    <circle cx="0" cy="-0.256" r="0.6400000000000001" fill="#667eea" opacity="0.8"/>
    <circle cx="2.5600000000000005" cy="-0.256" r="0.6400000000000001" fill="#667eea" opacity="0.8"/>
  </g>
  
  <!-- App Name Text -->
  <text x="16" y="24" text-anchor="middle" font-family="Arial, sans-serif" font-size="8" font-weight="bold" fill="white">
    Bradley's Travel Planner
  </text>
  
  <!-- Decorative elements -->
  <circle cx="6.4" cy="6.4" r="0.96" fill="rgba(255,255,255,0.3)"/>
  <circle cx="25.6" cy="25.6" r="0.64" fill="rgba(255,255,255,0.3)"/>
  <circle cx="4.8" cy="27.2" r="0.8" fill="rgba(255,255,255,0.3)"/>
</svg>
