
<svg width="512" height="512" viewBox="0 0 512 512" xmlns="http://www.w3.org/2000/svg">
  <defs>
    <linearGradient id="bg" x1="0%" y1="0%" x2="100%" y2="100%">
      <stop offset="0%" style="stop-color:#667eea;stop-opacity:1" />
      <stop offset="100%" style="stop-color:#764ba2;stop-opacity:1" />
    </linearGradient>
    <linearGradient id="plane" x1="0%" y1="0%" x2="100%" y2="100%">
      <stop offset="0%" style="stop-color:#ffffff;stop-opacity:1" />
      <stop offset="100%" style="stop-color:#f8f9fa;stop-opacity:1" />
    </linearGradient>
  </defs>
  
  <!-- Background circle -->
  <circle cx="256" cy="256" r="245.76" fill="url(#bg)" stroke="#ffffff" stroke-width="10.24"/>
  
  <!-- Plane icon -->
  <g transform="translate(256, 179.2)">
    <!-- Plane body -->
    <ellipse cx="0" cy="0" rx="122.88" ry="40.96000000000001" fill="url(#plane)" transform="rotate(-15)"/>
    
    <!-- Plane wings -->
    <ellipse cx="-61.44" cy="-20.480000000000004" rx="81.92000000000002" ry="20.480000000000004" fill="url(#plane)" transform="rotate(-15)"/>
    <ellipse cx="61.44" cy="-20.480000000000004" rx="81.92000000000002" ry="20.480000000000004" fill="url(#plane)" transform="rotate(-15)"/>
    
    <!-- Plane tail -->
    <ellipse cx="-102.4" cy="-61.44" rx="30.72" ry="61.44" fill="url(#plane)" transform="rotate(-15)"/>
    
    <!-- Plane nose -->
    <ellipse cx="102.4" cy="0" rx="20.480000000000004" ry="12.288" fill="url(#plane)" transform="rotate(-15)"/>
    
    <!-- Windows -->
    <circle cx="-40.96000000000001" cy="-4.096" r="10.240000000000002" fill="#667eea" opacity="0.8"/>
    <circle cx="0" cy="-4.096" r="10.240000000000002" fill="#667eea" opacity="0.8"/>
    <circle cx="40.96000000000001" cy="-4.096" r="10.240000000000002" fill="#667eea" opacity="0.8"/>
  </g>
  
  <!-- App Name Text -->
  <text x="256" y="384" text-anchor="middle" font-family="Arial, sans-serif" font-size="40.96" font-weight="bold" fill="white">
    Bradley's Travel Planner
  </text>
  
  <!-- Decorative elements -->
  <circle cx="102.4" cy="102.4" r="15.36" fill="rgba(255,255,255,0.3)"/>
  <circle cx="409.6" cy="409.6" r="10.24" fill="rgba(255,255,255,0.3)"/>
  <circle cx="76.8" cy="435.2" r="12.8" fill="rgba(255,255,255,0.3)"/>
</svg>
