
<svg width="114" height="114" viewBox="0 0 114 114" xmlns="http://www.w3.org/2000/svg">
  <defs>
    <linearGradient id="bg" x1="0%" y1="0%" x2="100%" y2="100%">
      <stop offset="0%" style="stop-color:#667eea;stop-opacity:1" />
      <stop offset="100%" style="stop-color:#764ba2;stop-opacity:1" />
    </linearGradient>
    <linearGradient id="plane" x1="0%" y1="0%" x2="100%" y2="100%">
      <stop offset="0%" style="stop-color:#ffffff;stop-opacity:1" />
      <stop offset="100%" style="stop-color:#f8f9fa;stop-opacity:1" />
    </linearGradient>
  </defs>
  
  <!-- Background circle -->
  <circle cx="57" cy="57" r="54.72" fill="url(#bg)" stroke="#ffffff" stroke-width="2.2800000000000002"/>
  
  <!-- Plane icon -->
  <g transform="translate(57, 39.9)">
    <!-- Plane body -->
    <ellipse cx="0" cy="0" rx="27.36" ry="9.120000000000001" fill="url(#plane)" transform="rotate(-15)"/>
    
    <!-- Plane wings -->
    <ellipse cx="-13.68" cy="-4.5600000000000005" rx="18.240000000000002" ry="4.5600000000000005" fill="url(#plane)" transform="rotate(-15)"/>
    <ellipse cx="13.68" cy="-4.5600000000000005" rx="18.240000000000002" ry="4.5600000000000005" fill="url(#plane)" transform="rotate(-15)"/>
    
    <!-- Plane tail -->
    <ellipse cx="-22.8" cy="-13.68" rx="6.84" ry="13.68" fill="url(#plane)" transform="rotate(-15)"/>
    
    <!-- Plane nose -->
    <ellipse cx="22.8" cy="0" rx="4.5600000000000005" ry="2.7359999999999998" fill="url(#plane)" transform="rotate(-15)"/>
    
    <!-- Windows -->
    <circle cx="-9.120000000000001" cy="-0.912" r="2.2800000000000002" fill="#667eea" opacity="0.8"/>
    <circle cx="0" cy="-0.912" r="2.2800000000000002" fill="#667eea" opacity="0.8"/>
    <circle cx="9.120000000000001" cy="-0.912" r="2.2800000000000002" fill="#667eea" opacity="0.8"/>
  </g>
  
  <!-- App Name Text -->
  <text x="57" y="85.5" text-anchor="middle" font-family="Arial, sans-serif" font-size="9.120000000000001" font-weight="bold" fill="white">
    Bradley's Travel Planner
  </text>
  
  <!-- Decorative elements -->
  <circle cx="22.8" cy="22.8" r="3.42" fill="rgba(255,255,255,0.3)"/>
  <circle cx="91.2" cy="91.2" r="2.2800000000000002" fill="rgba(255,255,255,0.3)"/>
  <circle cx="17.099999999999998" cy="96.89999999999999" r="2.85" fill="rgba(255,255,255,0.3)"/>
</svg>
