
<svg width="57" height="57" viewBox="0 0 57 57" xmlns="http://www.w3.org/2000/svg">
  <defs>
    <linearGradient id="bg" x1="0%" y1="0%" x2="100%" y2="100%">
      <stop offset="0%" style="stop-color:#667eea;stop-opacity:1" />
      <stop offset="100%" style="stop-color:#764ba2;stop-opacity:1" />
    </linearGradient>
    <linearGradient id="plane" x1="0%" y1="0%" x2="100%" y2="100%">
      <stop offset="0%" style="stop-color:#ffffff;stop-opacity:1" />
      <stop offset="100%" style="stop-color:#f8f9fa;stop-opacity:1" />
    </linearGradient>
  </defs>
  
  <!-- Background circle -->
  <circle cx="28.5" cy="28.5" r="27.36" fill="url(#bg)" stroke="#ffffff" stroke-width="1.1400000000000001"/>
  
  <!-- Plane icon -->
  <g transform="translate(28.5, 19.95)">
    <!-- Plane body -->
    <ellipse cx="0" cy="0" rx="13.68" ry="4.5600000000000005" fill="url(#plane)" transform="rotate(-15)"/>
    
    <!-- Plane wings -->
    <ellipse cx="-6.84" cy="-2.2800000000000002" rx="9.120000000000001" ry="2.2800000000000002" fill="url(#plane)" transform="rotate(-15)"/>
    <ellipse cx="6.84" cy="-2.2800000000000002" rx="9.120000000000001" ry="2.2800000000000002" fill="url(#plane)" transform="rotate(-15)"/>
    
    <!-- Plane tail -->
    <ellipse cx="-11.4" cy="-6.84" rx="3.42" ry="6.84" fill="url(#plane)" transform="rotate(-15)"/>
    
    <!-- Plane nose -->
    <ellipse cx="11.4" cy="0" rx="2.2800000000000002" ry="1.3679999999999999" fill="url(#plane)" transform="rotate(-15)"/>
    
    <!-- Windows -->
    <circle cx="-4.5600000000000005" cy="-0.456" r="1.1400000000000001" fill="#667eea" opacity="0.8"/>
    <circle cx="0" cy="-0.456" r="1.1400000000000001" fill="#667eea" opacity="0.8"/>
    <circle cx="4.5600000000000005" cy="-0.456" r="1.1400000000000001" fill="#667eea" opacity="0.8"/>
  </g>
  
  <!-- App Name Text -->
  <text x="28.5" y="42.75" text-anchor="middle" font-family="Arial, sans-serif" font-size="8" font-weight="bold" fill="white">
    Bradley's Travel Planner
  </text>
  
  <!-- Decorative elements -->
  <circle cx="11.4" cy="11.4" r="1.71" fill="rgba(255,255,255,0.3)"/>
  <circle cx="45.6" cy="45.6" r="1.1400000000000001" fill="rgba(255,255,255,0.3)"/>
  <circle cx="8.549999999999999" cy="48.449999999999996" r="1.425" fill="rgba(255,255,255,0.3)"/>
</svg>
