
<svg width="128" height="128" viewBox="0 0 128 128" xmlns="http://www.w3.org/2000/svg">
  <defs>
    <linearGradient id="bg" x1="0%" y1="0%" x2="100%" y2="100%">
      <stop offset="0%" style="stop-color:#667eea;stop-opacity:1" />
      <stop offset="100%" style="stop-color:#764ba2;stop-opacity:1" />
    </linearGradient>
    <linearGradient id="plane" x1="0%" y1="0%" x2="100%" y2="100%">
      <stop offset="0%" style="stop-color:#ffffff;stop-opacity:1" />
      <stop offset="100%" style="stop-color:#f8f9fa;stop-opacity:1" />
    </linearGradient>
  </defs>
  
  <!-- Background circle -->
  <circle cx="64" cy="64" r="61.44" fill="url(#bg)" stroke="#ffffff" stroke-width="2.56"/>
  
  <!-- Plane icon -->
  <g transform="translate(64, 44.8)">
    <!-- Plane body -->
    <ellipse cx="0" cy="0" rx="30.72" ry="10.240000000000002" fill="url(#plane)" transform="rotate(-15)"/>
    
    <!-- Plane wings -->
    <ellipse cx="-15.36" cy="-5.120000000000001" rx="20.480000000000004" ry="5.120000000000001" fill="url(#plane)" transform="rotate(-15)"/>
    <ellipse cx="15.36" cy="-5.120000000000001" rx="20.480000000000004" ry="5.120000000000001" fill="url(#plane)" transform="rotate(-15)"/>
    
    <!-- Plane tail -->
    <ellipse cx="-25.6" cy="-15.36" rx="7.68" ry="15.36" fill="url(#plane)" transform="rotate(-15)"/>
    
    <!-- Plane nose -->
    <ellipse cx="25.6" cy="0" rx="5.120000000000001" ry="3.072" fill="url(#plane)" transform="rotate(-15)"/>
    
    <!-- Windows -->
    <circle cx="-10.240000000000002" cy="-1.024" r="2.5600000000000005" fill="#667eea" opacity="0.8"/>
    <circle cx="0" cy="-1.024" r="2.5600000000000005" fill="#667eea" opacity="0.8"/>
    <circle cx="10.240000000000002" cy="-1.024" r="2.5600000000000005" fill="#667eea" opacity="0.8"/>
  </g>
  
  <!-- App Name Text -->
  <text x="64" y="96" text-anchor="middle" font-family="Arial, sans-serif" font-size="10.24" font-weight="bold" fill="white">
    Bradley's Travel Planner
  </text>
  
  <!-- Decorative elements -->
  <circle cx="25.6" cy="25.6" r="3.84" fill="rgba(255,255,255,0.3)"/>
  <circle cx="102.4" cy="102.4" r="2.56" fill="rgba(255,255,255,0.3)"/>
  <circle cx="19.2" cy="108.8" r="3.2" fill="rgba(255,255,255,0.3)"/>
</svg>
