
<svg width="72" height="72" viewBox="0 0 72 72" xmlns="http://www.w3.org/2000/svg">
  <defs>
    <linearGradient id="bg" x1="0%" y1="0%" x2="100%" y2="100%">
      <stop offset="0%" style="stop-color:#667eea;stop-opacity:1" />
      <stop offset="100%" style="stop-color:#764ba2;stop-opacity:1" />
    </linearGradient>
    <linearGradient id="plane" x1="0%" y1="0%" x2="100%" y2="100%">
      <stop offset="0%" style="stop-color:#ffffff;stop-opacity:1" />
      <stop offset="100%" style="stop-color:#f8f9fa;stop-opacity:1" />
    </linearGradient>
  </defs>
  
  <!-- Background circle -->
  <circle cx="36" cy="36" r="34.56" fill="url(#bg)" stroke="#ffffff" stroke-width="1.44"/>
  
  <!-- Plane icon -->
  <g transform="translate(36, 25.2)">
    <!-- Plane body -->
    <ellipse cx="0" cy="0" rx="17.28" ry="5.760000000000001" fill="url(#plane)" transform="rotate(-15)"/>
    
    <!-- Plane wings -->
    <ellipse cx="-8.64" cy="-2.8800000000000003" rx="11.520000000000001" ry="2.8800000000000003" fill="url(#plane)" transform="rotate(-15)"/>
    <ellipse cx="8.64" cy="-2.8800000000000003" rx="11.520000000000001" ry="2.8800000000000003" fill="url(#plane)" transform="rotate(-15)"/>
    
    <!-- Plane tail -->
    <ellipse cx="-14.4" cy="-8.64" rx="4.32" ry="8.64" fill="url(#plane)" transform="rotate(-15)"/>
    
    <!-- Plane nose -->
    <ellipse cx="14.4" cy="0" rx="2.8800000000000003" ry="1.728" fill="url(#plane)" transform="rotate(-15)"/>
    
    <!-- Windows -->
    <circle cx="-5.760000000000001" cy="-0.5760000000000001" r="1.4400000000000002" fill="#667eea" opacity="0.8"/>
    <circle cx="0" cy="-0.5760000000000001" r="1.4400000000000002" fill="#667eea" opacity="0.8"/>
    <circle cx="5.760000000000001" cy="-0.5760000000000001" r="1.4400000000000002" fill="#667eea" opacity="0.8"/>
  </g>
  
  <!-- App Name Text -->
  <text x="36" y="54" text-anchor="middle" font-family="Arial, sans-serif" font-size="8" font-weight="bold" fill="white">
    Bradley's Travel Planner
  </text>
  
  <!-- Decorative elements -->
  <circle cx="14.4" cy="14.4" r="2.16" fill="rgba(255,255,255,0.3)"/>
  <circle cx="57.6" cy="57.6" r="1.44" fill="rgba(255,255,255,0.3)"/>
  <circle cx="10.799999999999999" cy="61.199999999999996" r="1.8" fill="rgba(255,255,255,0.3)"/>
</svg>
