
<svg width="144" height="144" viewBox="0 0 144 144" xmlns="http://www.w3.org/2000/svg">
  <defs>
    <linearGradient id="bg" x1="0%" y1="0%" x2="100%" y2="100%">
      <stop offset="0%" style="stop-color:#667eea;stop-opacity:1" />
      <stop offset="100%" style="stop-color:#764ba2;stop-opacity:1" />
    </linearGradient>
    <linearGradient id="plane" x1="0%" y1="0%" x2="100%" y2="100%">
      <stop offset="0%" style="stop-color:#ffffff;stop-opacity:1" />
      <stop offset="100%" style="stop-color:#f8f9fa;stop-opacity:1" />
    </linearGradient>
  </defs>
  
  <!-- Background circle -->
  <circle cx="72" cy="72" r="69.12" fill="url(#bg)" stroke="#ffffff" stroke-width="2.88"/>
  
  <!-- Plane icon -->
  <g transform="translate(72, 50.4)">
    <!-- Plane body -->
    <ellipse cx="0" cy="0" rx="34.56" ry="11.520000000000001" fill="url(#plane)" transform="rotate(-15)"/>
    
    <!-- Plane wings -->
    <ellipse cx="-17.28" cy="-5.760000000000001" rx="23.040000000000003" ry="5.760000000000001" fill="url(#plane)" transform="rotate(-15)"/>
    <ellipse cx="17.28" cy="-5.760000000000001" rx="23.040000000000003" ry="5.760000000000001" fill="url(#plane)" transform="rotate(-15)"/>
    
    <!-- Plane tail -->
    <ellipse cx="-28.8" cy="-17.28" rx="8.64" ry="17.28" fill="url(#plane)" transform="rotate(-15)"/>
    
    <!-- Plane nose -->
    <ellipse cx="28.8" cy="0" rx="5.760000000000001" ry="3.456" fill="url(#plane)" transform="rotate(-15)"/>
    
    <!-- Windows -->
    <circle cx="-11.520000000000001" cy="-1.1520000000000001" r="2.8800000000000003" fill="#667eea" opacity="0.8"/>
    <circle cx="0" cy="-1.1520000000000001" r="2.8800000000000003" fill="#667eea" opacity="0.8"/>
    <circle cx="11.520000000000001" cy="-1.1520000000000001" r="2.8800000000000003" fill="#667eea" opacity="0.8"/>
  </g>
  
  <!-- App Name Text -->
  <text x="72" y="108" text-anchor="middle" font-family="Arial, sans-serif" font-size="11.52" font-weight="bold" fill="white">
    Bradley's Travel Planner
  </text>
  
  <!-- Decorative elements -->
  <circle cx="28.8" cy="28.8" r="4.32" fill="rgba(255,255,255,0.3)"/>
  <circle cx="115.2" cy="115.2" r="2.88" fill="rgba(255,255,255,0.3)"/>
  <circle cx="21.599999999999998" cy="122.39999999999999" r="3.6" fill="rgba(255,255,255,0.3)"/>
</svg>
